<?xml version="1.0" encoding="UTF-8"?>
<svg version="1.1" xmlns="http://www.w3.org/2000/svg" width="1080" height="1080">
<path d="M0 0 C356.4 0 712.8 0 1080 0 C1080 356.4 1080 712.8 1080 1080 C723.6 1080 367.2 1080 0 1080 C0 723.6 0 367.2 0 0 Z " fill="#FEFEFE" transform="translate(0,0)"/>
<path d="M0 0 C0.737304 -0.00438225 1.474608 -0.00876451 2.23425454 -0.01327956 C4.71771091 -0.02668968 7.20113179 -0.03285134 9.68461609 -0.03897095 C11.4600287 -0.04687011 13.2354397 -0.05513895 15.010849 -0.06375122 C20.85220298 -0.08999077 26.69356422 -0.10527986 32.53495789 -0.11953735 C34.54386589 -0.12489606 36.55277384 -0.13027357 38.56168175 -0.13566971 C46.91621053 -0.15730044 55.27073735 -0.17603839 63.62528706 -0.1872921 C75.60911239 -0.2035393 87.59261389 -0.2367336 99.57631713 -0.29369295 C107.99674817 -0.33235515 116.41709246 -0.35192032 124.83760995 -0.35721266 C129.86978528 -0.36087097 134.90161537 -0.3729431 139.93369484 -0.4053154 C144.66731131 -0.43533094 149.40037247 -0.44173123 154.13406372 -0.42993164 C155.87193557 -0.42971036 157.6098327 -0.43806003 159.3476162 -0.45558548 C161.71988362 -0.47820845 164.09012564 -0.47001627 166.46240234 -0.45410156 C167.15073554 -0.46798365 167.83906873 -0.48186574 168.54826051 -0.49616849 C172.37137049 -0.43293843 173.82340292 0.07078534 176.78631878 2.57666588 C177.49098687 3.42715319 178.19565496 4.2776405 178.92167664 5.15390015 C179.72605164 6.0665564 179.72605164 6.0665564 180.54667664 6.99765015 C181.00042664 7.54421265 181.45417664 8.09077515 181.92167664 8.65390015 C183.78619339 10.87493949 185.6250382 12.8260012 187.73417664 14.84140015 C189.98006327 17.21562316 190.19471173 18.14218841 190.92167664 21.15390015 C191.52882507 21.45167358 192.13597351 21.74944702 192.76152039 22.0562439 C195.1425949 23.26615699 196.26008613 24.4609424 197.92167664 26.52890015 C202.16738256 31.76680908 206.29254071 35.17754507 212.17167664 38.40390015 C212.82136414 38.76741577 213.47105164 39.1309314 214.14042664 39.50546265 C215.7308609 40.39423474 217.32582111 41.27489951 218.92167664 42.15390015 C218.92167664 42.81390015 218.92167664 43.47390015 218.92167664 44.15390015 C219.61261414 44.38335327 220.30355164 44.6128064 221.01542664 44.84921265 C224.55445834 46.4379715 227.4082491 48.6307432 230.42167664 51.02890015 C230.97726257 51.46331421 231.53284851 51.89772827 232.10527039 52.3453064 C233.19743726 53.20105127 234.28609735 54.06129404 235.37089539 54.92636108 C236.83967146 56.08898799 238.33320585 57.22013592 239.82792664 58.34921265 C240.51886414 58.94475952 241.20980164 59.5403064 241.92167664 60.15390015 C241.92167664 60.81390015 241.92167664 61.47390015 241.92167664 62.15390015 C242.53606031 62.15113477 243.15044399 62.14836939 243.78344536 62.14552021 C258.76656817 62.07912583 273.74964551 62.02955434 288.73287773 61.99846363 C295.97880732 61.98302687 303.22463841 61.96199882 310.47050476 61.92758179 C316.78960525 61.89758122 323.10863437 61.87830197 329.42780411 61.87163466 C332.77055935 61.86774029 336.11294956 61.8570566 339.4556694 61.83670998 C343.19690165 61.81484882 346.93771474 61.81193694 350.67900085 61.81332397 C351.77448746 61.80253815 352.86997406 61.79175232 353.99865723 61.78063965 C363.00464681 61.81663355 371.25593644 63.01737114 378.29667664 69.02890015 C379.4839032 70.01503296 379.4839032 70.01503296 380.69511414 71.02108765 C387.1428041 77.19729593 390.0111134 83.27129165 390.30478668 92.15755367 C390.32382207 94.54419726 390.3264466 96.93100624 390.31608582 99.31770325 C390.32217692 100.63717597 390.32826802 101.95664868 390.3345437 103.31610543 C390.35089793 106.96342775 390.34863461 110.61053328 390.34316874 114.25787938 C390.34049298 118.19730646 390.35504045 122.13667648 390.36726379 126.07608032 C390.38829606 133.7876883 390.39285995 141.49922107 390.39107591 149.21085434 C390.38976732 155.47966537 390.39357734 161.74845298 390.40100098 168.0172596 C390.40310021 169.82424627 390.40519781 171.63123294 390.4072938 173.43821961 C390.40885909 174.7873681 390.40885909 174.7873681 390.410456 176.16377211 C390.42934903 193.16580499 390.42831087 210.1677947 390.42148668 227.16983373 C390.41591027 242.71854217 390.43674247 258.26708589 390.46984714 273.81575584 C390.50359093 289.78879204 390.51875173 305.76174935 390.51413012 321.73482186 C390.51188633 330.69946504 390.51711544 339.66395594 390.54202271 348.62856865 C390.56304457 356.25956644 390.56661895 363.89032839 390.54772311 371.52133589 C390.53857116 375.41320153 390.53740525 379.30462755 390.55807877 383.19645882 C390.57681274 386.76265188 390.5722594 390.32804604 390.54953295 393.89420892 C390.54338059 395.78800815 390.56171994 397.68183869 390.58106947 399.57554907 C390.50349892 407.05392804 389.28410854 412.04776215 384.92167664 418.15390015 C384.45495088 418.81852042 383.98822513 419.4831407 383.50735617 420.16790098 C379.15259709 426.10567955 372.7592661 428.87470366 365.92167664 431.15390015 C364.33201743 431.2507102 362.73864527 431.29147846 361.14605713 431.29866028 C360.16325775 431.30555878 359.18045837 431.31245728 358.1678772 431.31956482 C357.0909108 431.32217819 356.0139444 431.32479156 354.90434265 431.32748413 C353.76916199 431.33417114 352.63398132 431.34085815 351.46440125 431.3477478 C348.99588665 431.36181089 346.52735896 431.37370092 344.05882454 431.3836956 C340.15506349 431.40008002 336.25139974 431.42331613 332.34768677 431.44859314 C321.24732064 431.51977704 310.1469086 431.57959421 299.0464325 431.63070679 C292.26077334 431.66203463 285.47523169 431.7037222 278.68966484 431.75090218 C276.10007171 431.76694394 273.51045274 431.77925541 270.92082405 431.78780937 C267.30323493 431.7999323 263.68591056 431.82406928 260.06840515 431.85092163 C258.99346298 431.85151077 257.91852081 431.85209991 256.81100464 431.85270691 C255.82538544 431.86242523 254.83976624 431.87214355 253.82427979 431.88215637 C252.54145788 431.88850428 252.54145788 431.88850428 251.23272038 431.89498043 C248.72987896 432.17538836 247.08632936 432.89746165 244.92167664 434.15390015 C244.92167664 434.81390015 244.92167664 435.47390015 244.92167664 436.15390015 C233.45877002 446.99719019 219.52914299 456.28719742 205.92167664 464.15390015 C204.88672058 464.7554895 204.88672058 464.7554895 203.83085632 465.36923218 C194.75343485 470.61568756 185.67193951 475.53233365 175.89482117 479.37362671 C173.66430685 480.25567617 171.44846786 481.17102397 169.23027039 482.08358765 C141.26490316 493.37646849 112.00711879 498.33389973 81.92167664 498.40390015 C81.23513 498.4055719 80.54858337 498.40724365 79.8412323 498.40896606 C59.28970626 498.41192755 37.56068837 497.14560367 17.79667664 491.21640015 C16.6120282 490.86319702 15.42737976 490.5099939 14.20683289 490.14608765 C13.12273132 489.81866577 12.03862976 489.4912439 10.92167664 489.15390015 C10.11601257 488.92960327 9.31034851 488.7053064 8.48027039 488.47421265 C-5.13064108 484.63948629 -18.39005517 479.36412112 -31.07832336 473.15390015 C-32.03480774 472.70659546 -32.99129211 472.25929077 -33.97676086 471.7984314 C-47.19404859 465.47326824 -59.11377477 457.43224325 -70.58296204 448.35678101 C-71.59580261 447.55832764 -71.59580261 447.55832764 -72.62910461 446.7437439 C-73.22376526 446.26799927 -73.8184259 445.79225464 -74.43110657 445.30209351 C-76.19321756 443.95834116 -76.19321756 443.95834116 -79.07832336 443.15390015 C-79.07832336 443.81390015 -79.07832336 444.47390015 -79.07832336 445.15390015 C-80.43379211 446.45077515 -80.43379211 446.45077515 -82.26582336 447.90390015 C-84.6900672 449.90548023 -86.5424534 451.71085619 -88.57832336 454.15390015 C-90.53841903 456.50601494 -92.25536485 458.23145172 -94.57832336 460.15390015 C-97.87703748 462.88854843 -100.38582634 465.82370646 -103.07832336 469.15390015 C-104.73451287 470.83097853 -106.40359139 472.495338 -108.07832336 474.15390015 C-109.31269876 475.40913106 -110.54567245 476.6657413 -111.77754211 477.9234314 C-113.10687905 479.27117656 -114.43630788 480.61883111 -115.76582336 481.96640015 C-116.44193665 482.65927124 -117.11804993 483.35214233 -117.81465149 484.06600952 C-118.4624054 484.72020874 -119.1101593 485.37440796 -119.77754211 486.0484314 C-120.36366272 486.64502563 -120.94978333 487.24161987 -121.55366516 487.85629272 C-123.07832336 489.15390015 -123.07832336 489.15390015 -125.07832336 489.15390015 C-122.98005955 493.11728734 -120.54515127 495.74074569 -117.18769836 498.6265564 C-116.07832336 500.15390015 -116.07832336 500.15390015 -116.16622448 501.88194561 C-117.52823392 505.27458601 -120.00814468 507.5030168 -122.56253052 510.03251648 C-123.14042711 510.61650418 -123.71832371 511.20049188 -124.31373233 511.80217618 C-126.25654947 513.7616734 -128.20996098 515.71025176 -130.16352844 517.6590271 C-131.55679352 519.05962942 -132.94943309 520.4608542 -134.3414917 521.86265564 C-138.12772884 525.67114971 -141.92359638 529.46990502 -145.72192216 533.26633859 C-148.88827907 536.43257603 -152.0502876 539.60313871 -155.21241015 542.77360409 C-162.66887776 550.24931953 -170.1335091 557.71681532 -177.60298157 565.17953491 C-185.31946908 572.88937485 -193.02106485 580.61386783 -200.71567231 588.34553939 C-207.31481768 594.97532102 -213.92352889 601.59545976 -220.53996009 608.20799035 C-224.49507774 612.16103483 -228.44627939 616.11780949 -232.38814735 620.08407021 C-236.09281959 623.81090751 -239.80922462 627.52562192 -243.53518105 631.23117638 C-244.90371713 632.59628464 -246.26796107 633.96571081 -247.62765121 635.33963013 C-249.47821554 637.20822427 -251.34335481 639.06089682 -253.21316528 640.91020203 C-253.75334646 641.46290105 -254.29352763 642.01560007 -254.85007793 642.58504754 C-256.37125874 644.0704546 -256.37125874 644.0704546 -259.07832336 646.15390015 C-262.4380444 646.02230068 -264.03643039 644.58353203 -266.32832336 642.21640015 C-266.84910461 641.69175171 -267.36988586 641.16710327 -267.90644836 640.6265564 C-269.07832336 639.15390015 -269.07832336 639.15390015 -269.07832336 637.15390015 C-269.61457336 636.92702515 -270.15082336 636.70015015 -270.70332336 636.46640015 C-277.17555906 632.88963832 -282.38121039 627.21116031 -287.07832336 621.59140015 C-289.51027482 618.71162131 -292.08386945 616.45732624 -295.07832336 614.15390015 C-297.93998418 611.43899117 -300.55278548 608.61429459 -303.07832336 605.59140015 C-305.51027482 602.71162131 -308.08386945 600.45732624 -311.07832336 598.15390015 C-312.76494794 596.5074333 -314.43344043 594.84206948 -316.07832336 593.15390015 C-316.67644836 592.55577515 -317.27457336 591.95765015 -317.89082336 591.34140015 C-318.47863586 590.75358765 -318.47863586 590.75358765 -319.07832336 590.15390015 C-318.26582336 588.21640015 -318.26582336 588.21640015 -317.07832336 586.15390015 C-316.08832336 585.82390015 -315.09832336 585.49390015 -314.07832336 585.15390015 C-313.74832336 584.16390015 -313.41832336 583.17390015 -313.07832336 582.15390015 C-312.41832336 582.15390015 -311.75832336 582.15390015 -311.07832336 582.15390015 C-310.67613586 581.19483765 -310.67613586 581.19483765 -310.26582336 580.21640015 C-309.07832336 578.15390015 -309.07832336 578.15390015 -306.07832336 577.15390015 C-305.74832336 576.16390015 -305.41832336 575.17390015 -305.07832336 574.15390015 C-304.41832336 574.15390015 -303.75832336 574.15390015 -303.07832336 574.15390015 C-302.81019836 573.51452515 -302.54207336 572.87515015 -302.26582336 572.21640015 C-301.07832336 570.15390015 -301.07832336 570.15390015 -298.07832336 569.15390015 C-297.74832336 568.16390015 -297.41832336 567.17390015 -297.07832336 566.15390015 C-296.41832336 566.15390015 -295.75832336 566.15390015 -295.07832336 566.15390015 C-294.81019836 565.51452515 -294.54207336 564.87515015 -294.26582336 564.21640015 C-293.07832336 562.15390015 -293.07832336 562.15390015 -290.07832336 561.15390015 C-289.74832336 560.16390015 -289.41832336 559.17390015 -289.07832336 558.15390015 C-288.41832336 558.15390015 -287.75832336 558.15390015 -287.07832336 558.15390015 C-286.67613586 557.19483765 -286.67613586 557.19483765 -286.26582336 556.21640015 C-285.07832336 554.15390015 -285.07832336 554.15390015 -282.07832336 553.15390015 C-281.74832336 552.16390015 -281.41832336 551.17390015 -281.07832336 550.15390015 C-280.41832336 550.15390015 -279.75832336 550.15390015 -279.07832336 550.15390015 C-278.67613586 549.19483765 -278.67613586 549.19483765 -278.26582336 548.21640015 C-277.07832336 546.15390015 -277.07832336 546.15390015 -274.07832336 545.15390015 C-273.74832336 544.16390015 -273.41832336 543.17390015 -273.07832336 542.15390015 C-272.41832336 542.15390015 -271.75832336 542.15390015 -271.07832336 542.15390015 C-270.73801086 541.28765015 -270.73801086 541.28765015 -270.39082336 540.40390015 C-268.74048859 537.57475481 -266.6457376 536.17115419 -264.07832336 534.15390015 C-262.72445401 532.50387187 -261.39154194 530.83646145 -260.07832336 529.15390015 C-257.36341439 526.29223933 -254.53871781 523.67943803 -251.51582336 521.15390015 C-248.63604453 518.72194869 -246.38174945 516.14835406 -244.07832336 513.15390015 C-241.36341439 510.29223933 -238.53871781 507.67943803 -235.51582336 505.15390015 C-232.63604453 502.72194869 -230.38174945 500.14835406 -228.07832336 497.15390015 C-224.7647357 493.66119963 -221.24141408 490.54262054 -217.53144836 487.4859314 C-215.95053154 486.19593105 -215.95053154 486.19593105 -215.07832336 484.15390015 C-214.41832336 484.15390015 -213.75832336 484.15390015 -213.07832336 484.15390015 C-212.74832336 483.16390015 -212.41832336 482.17390015 -212.07832336 481.15390015 C-209.64082336 478.46640015 -209.64082336 478.46640015 -207.07832336 476.15390015 C-206.41832336 476.15390015 -205.75832336 476.15390015 -205.07832336 476.15390015 C-204.74832336 475.16390015 -204.41832336 474.17390015 -204.07832336 473.15390015 C-201.64082336 470.46640015 -201.64082336 470.46640015 -199.07832336 468.15390015 C-198.41832336 468.15390015 -197.75832336 468.15390015 -197.07832336 468.15390015 C-196.74832336 467.16390015 -196.41832336 466.17390015 -196.07832336 465.15390015 C-193.64082336 462.46640015 -193.64082336 462.46640015 -191.07832336 460.15390015 C-190.41832336 460.15390015 -189.75832336 460.15390015 -189.07832336 460.15390015 C-188.74832336 459.16390015 -188.41832336 458.17390015 -188.07832336 457.15390015 C-185.64082336 454.46640015 -185.64082336 454.46640015 -183.07832336 452.15390015 C-182.41832336 452.15390015 -181.75832336 452.15390015 -181.07832336 452.15390015 C-180.74832336 451.16390015 -180.41832336 450.17390015 -180.07832336 449.15390015 C-177.76582336 446.40390015 -177.76582336 446.40390015 -175.07832336 444.15390015 C-171.23000172 444.36725679 -169.39035091 446.52627122 -166.82832336 449.21640015 C-166.12191711 449.94987671 -165.41551086 450.68335327 -164.68769836 451.4390564 C-164.15660461 452.00495483 -163.62551086 452.57085327 -163.07832336 453.15390015 C-158.31894167 451.56743958 -155.75172216 447.98269866 -152.64082336 444.15390015 C-150.7359589 441.92381492 -149.12648564 440.27337961 -146.89082336 438.46640015 C-143.95077581 436.27718289 -143.95077581 436.27718289 -142.07832336 433.15390015 C-141.41832336 433.15390015 -140.75832336 433.15390015 -140.07832336 433.15390015 C-140.07832336 432.49390015 -140.07832336 431.83390015 -140.07832336 431.15390015 C-140.83729919 431.16278259 -141.59627502 431.17166504 -142.37825012 431.18081665 C-149.55720049 431.2612151 -156.73593024 431.32199183 -163.91521454 431.36114883 C-167.60552291 431.38195724 -171.29545694 431.41014934 -174.98554993 431.45565796 C-178.55174398 431.49935958 -182.11757968 431.52308791 -185.684021 431.53340912 C-187.69582449 431.54431509 -189.70748532 431.57550206 -191.71907043 431.60708618 C-201.49876031 431.60946768 -207.70159661 429.89833604 -215.07832336 423.15390015 C-218.07832336 419.63665877 -218.07832336 419.63665877 -218.07832336 417.15390015 C-218.73832336 417.15390015 -219.39832336 417.15390015 -220.07832336 417.15390015 C-223.74343768 408.87754603 -224.65442902 401.74351182 -224.59298706 392.74995422 C-224.59993259 391.44087445 -224.60687812 390.13179468 -224.61403412 388.78304583 C-224.63254618 385.17856869 -224.62639653 381.5745056 -224.61588109 377.97001207 C-224.60885644 374.07150988 -224.62491149 370.17308998 -224.63787842 366.27461243 C-224.65946796 358.64928114 -224.65940474 351.02409939 -224.65125287 343.39874762 C-224.64494196 337.19961494 -224.64609989 331.00052574 -224.65252495 324.80139351 C-224.6534266 323.91765553 -224.65432826 323.03391755 -224.65525724 322.12339963 C-224.65710851 320.32787381 -224.65897107 318.532348 -224.6608448 316.7368222 C-224.67740515 299.91833222 -224.66871851 283.09992625 -224.65185922 266.28144134 C-224.6371582 250.90495638 -224.65179942 235.52866676 -224.68062938 220.15220695 C-224.71004088 204.34743567 -224.7209909 188.5427545 -224.71144718 172.73795706 C-224.71042467 170.94950173 -224.70943006 169.16104638 -224.70846367 167.37259102 C-224.70774908 166.05279607 -224.70774908 166.05279607 -224.70702006 164.7063386 C-224.70485856 158.51675026 -224.71464576 152.32724751 -224.7292347 146.13767815 C-224.74677344 138.59167767 -224.74661834 131.04592632 -224.72388304 123.49993556 C-224.71275575 119.65248641 -224.70954364 115.80547594 -224.72818375 111.95804596 C-224.74815543 107.78195861 -224.72917114 103.60693594 -224.70651245 99.43086243 C-224.71834818 98.2223907 -224.73018391 97.01391898 -224.74237829 95.7688269 C-224.63092659 85.64997822 -221.49043905 78.04835908 -214.59785461 70.61483765 C-205.00786741 61.39464429 -193.56520831 61.81740854 -181.10176086 62.0484314 C-179.76056212 62.08150779 -178.41938979 62.11583494 -177.07832336 62.15390015 C-177.12472961 60.87515015 -177.17113586 59.59640015 -177.21894836 58.27890015 C-177.25649363 56.57059036 -177.29289082 54.86225506 -177.32832336 53.15390015 C-177.36183899 52.31472046 -177.39535461 51.47554077 -177.42988586 50.6109314 C-177.54120919 43.43057667 -175.85205566 38.37681986 -171.14863586 32.91171265 C-170.50668274 32.37288452 -169.86472961 31.8340564 -169.20332336 31.27890015 C-168.56652649 30.72460327 -167.92972961 30.1703064 -167.27363586 29.59921265 C-162.40978214 26.39703137 -157.63481973 25.89849429 -151.91474915 25.8633728 C-151.22446625 25.85665558 -150.53418335 25.84993835 -149.82298279 25.84301758 C-147.55645922 25.82412568 -145.29023311 25.82011801 -143.02363586 25.81796265 C-141.43711733 25.81152893 -139.85059996 25.80480014 -138.26408386 25.79779053 C-134.94383495 25.78584004 -131.62368991 25.78210743 -128.30342102 25.78329468 C-124.06447223 25.78349782 -119.82619421 25.75619121 -115.58740425 25.72175026 C-112.31184372 25.69943242 -109.03644343 25.69545861 -105.76081467 25.69651413 C-104.19881249 25.69416569 -102.63680538 25.6853851 -101.07487869 25.6698494 C-91.5391182 25.58387427 -84.58972478 25.84271681 -76.83613586 31.9078064 C-72.02799073 37.23357481 -70.71682214 42.06526071 -70.07832336 49.15390015 C-69.19273743 48.54804077 -68.30715149 47.9421814 -67.39472961 47.31796265 C-60.49278254 42.63490288 -53.52138525 38.12855079 -46.32832336 33.90390015 C-45.60886536 33.47899292 -44.88940735 33.05408569 -44.14814758 32.61630249 C-40.25913633 30.34392083 -36.34123733 28.32726098 -32.26582336 26.40390015 C-23.36330386 21.65408029 -17.35571357 12.28305899 -11.45332336 4.34140015 C-7.94419182 -0.36822377 -5.49532383 0.00393559 0 0 Z " fill="#040404" transform="translate(479.0783233642578,262.8460998535156)"/>
<path d="M0 0 C19.28559767 16.65344261 32.01700232 37.29434172 35 63 C36.99584005 92.31984078 29.02572487 117.46122635 10 140 C9.54367187 140.60199219 9.08734375 141.20398438 8.6171875 141.82421875 C-3.63193376 157.55737151 -25.97391389 167.71875391 -45.12890625 171.640625 C-69.33039141 173.88738245 -89.26550931 171.41383403 -111 161 C-111 160.34 -111 159.68 -111 159 C-112.04027344 158.89365234 -112.04027344 158.89365234 -113.1015625 158.78515625 C-116.82162809 157.77742959 -119.40832552 155.79460168 -122.375 153.4375 C-122.94935791 152.98785889 -123.52371582 152.53821777 -124.11547852 152.07495117 C-128.63525486 148.45874614 -132.39792669 144.53073284 -136 140 C-137.14332035 138.70610844 -138.28905353 137.41434383 -139.4375 136.125 C-142 133.24804178 -142 133.24804178 -142 131 C-142.66 131 -143.32 131 -144 131 C-144.66 129.02 -145.32 127.04 -146 125 C-146.66 125 -147.32 125 -148 125 C-154.24989848 114.12121416 -157.45283529 103.23520824 -160 91 C-160.20238281 90.04738281 -160.40476562 89.09476563 -160.61328125 88.11328125 C-163.06673094 68.36177213 -160.45482286 49.98382403 -152 32 C-151.34 32 -150.68 32 -150 32 C-149.84144531 30.91912109 -149.84144531 30.91912109 -149.6796875 29.81640625 C-146.10414925 15.00052647 -128.69835136 0.2442065 -116.5625 -7.6875 C-79.54282622 -30.26796492 -33.45668876 -28.56601 0 0 Z " fill="#FBFBFB" transform="translate(625,437)"/>
<path d="M0 0 C5.28 0 10.56 0 16 0 C16 278.19 16 556.38 16 843 C-135.47 843 -286.94 843 -443 843 C-443 837.72 -443 832.44 -443 827 C-296.81 827 -150.62 827 0 827 C0 554.09 0 281.18 0 0 Z " fill="#070707" transform="translate(970,146)"/>
<path d="M0 0 C151.47 0 302.94 0 459 0 C459 5.28 459 10.56 459 16 C312.81 16 166.62 16 16 16 C16 288.58 16 561.16 16 842 C10.72 842 5.44 842 0 842 C0 564.14 0 286.28 0 0 Z " fill="#090909" transform="translate(83,72)"/>
<path d="M0 0 C1.26199219 0.00418945 2.52398438 0.00837891 3.82421875 0.01269531 C25.2841363 0.27078542 43.66623386 5.77061693 62.75 15.3125 C62.75 15.9725 62.75 16.6325 62.75 17.3125 C63.48734375 17.58707031 64.2246875 17.86164063 64.984375 18.14453125 C82.22692264 25.42634162 99.32390661 42.78439373 107.75 59.3125 C107.75 59.9725 107.75 60.6325 107.75 61.3125 C108.41 61.3125 109.07 61.3125 109.75 61.3125 C110.59324672 62.890576 111.42423918 64.4752042 112.25 66.0625 C112.7140625 66.94421875 113.178125 67.8259375 113.65625 68.734375 C114.75 71.3125 114.75 71.3125 114.75 75.3125 C115.41 75.3125 116.07 75.3125 116.75 75.3125 C116.90855469 75.84875 117.06710937 76.385 117.23046875 76.9375 C117.46378906 77.72125 117.69710937 78.505 117.9375 79.3125 C118.20691406 80.22257812 118.47632813 81.13265625 118.75390625 82.0703125 C119.48033904 84.43478001 120.23548232 86.77496323 121.02734375 89.1171875 C123.75220084 97.26207622 125.62031499 104.66065731 125.75 113.3125 C125.76901367 114.1797168 125.78802734 115.04693359 125.80761719 115.94042969 C126.23157279 136.99225803 123.40761309 155.33966072 116.75 175.3125 C116.09 175.3125 115.43 175.3125 114.75 175.3125 C114.42 177.2925 114.09 179.2725 113.75 181.3125 C113.09 181.3125 112.43 181.3125 111.75 181.3125 C111.48445312 182.19421875 111.21890625 183.0759375 110.9453125 183.984375 C107.64158126 193.18299924 100.91255106 200.86993299 94.75 208.3125 C93.986875 209.323125 93.22375 210.33375 92.4375 211.375 C88.31119558 215.88514669 83.55137795 219.54631276 78.75 223.3125 C78.07839844 223.85003906 77.40679688 224.38757813 76.71484375 224.94140625 C68.1604288 231.60694826 58.82120728 237.28401709 48.75 241.3125 C48.02039063 241.63734375 47.29078125 241.9621875 46.5390625 242.296875 C41.34752107 244.53906897 36.09569534 246.11728982 30.625 247.5 C29.96814209 247.66693359 29.31128418 247.83386719 28.63452148 248.00585938 C8.53780985 252.88509097 -13.39360755 251.54686428 -33.25 246.3125 C-34.23613281 246.07402344 -35.22226562 245.83554687 -36.23828125 245.58984375 C-43.26200346 243.71909158 -49.75332471 240.52151152 -56.25 237.3125 C-57.19101562 236.8484375 -58.13203125 236.384375 -59.1015625 235.90625 C-70.151164 230.17446824 -80.63993486 222.32259029 -89.25 213.3125 C-89.25 212.6525 -89.25 211.9925 -89.25 211.3125 C-90.24 210.9825 -91.23 210.6525 -92.25 210.3125 C-103.56371983 197.36978304 -112.58638064 181.49426959 -118.25 165.3125 C-118.745 164.1575 -119.24 163.0025 -119.75 161.8125 C-124.00762175 150.27621317 -124.74482934 138.03132879 -124.64111328 125.8659668 C-124.62492892 123.61511403 -124.64112921 121.36603588 -124.66015625 119.11523438 C-124.67517038 108.74684191 -123.96645851 98.74043923 -119.25 89.3125 C-119.1159375 88.23613281 -118.981875 87.15976562 -118.84375 86.05078125 C-118.15465029 81.71217323 -116.68388617 78.40272209 -114.75 74.5 C-114.42902344 73.83291016 -114.10804688 73.16582031 -113.77734375 72.47851562 C-112.62059115 70.08031097 -111.44074606 67.69399212 -110.25 65.3125 C-109.59 65.3125 -108.93 65.3125 -108.25 65.3125 C-107.97671875 64.42433594 -107.7034375 63.53617187 -107.421875 62.62109375 C-99.07215983 39.04706457 -72.61423081 20.69988476 -51.09375 10.16992188 C-46.92790552 8.23262767 -42.59630132 6.78571887 -38.25 5.3125 C-37.44691406 5.03277344 -36.64382813 4.75304687 -35.81640625 4.46484375 C-24.20196538 0.66964878 -12.14181503 -0.05566636 0 0 Z M-72.890625 59.5859375 C-77.14897458 64.50701036 -80.70308849 69.86218124 -84.25 75.3125 C-84.91 76.3025 -85.57 77.2925 -86.25 78.3125 C-86.25 79.6325 -86.25 80.9525 -86.25 82.3125 C-86.91 82.3125 -87.57 82.3125 -88.25 82.3125 C-99.01533806 105.21090351 -100.2135662 129.08030992 -93.25 153.3125 C-93.01152344 154.18648437 -92.77304687 155.06046875 -92.52734375 155.9609375 C-90.50209045 162.67944246 -87.2669289 168.99550001 -84.25 175.3125 C-83.59 175.3125 -82.93 175.3125 -82.25 175.3125 C-81.59 177.2925 -80.93 179.2725 -80.25 181.3125 C-79.59 181.3125 -78.93 181.3125 -78.25 181.3125 C-77.85748047 182.18261719 -77.85748047 182.18261719 -77.45703125 183.0703125 C-76.1794858 185.44348755 -74.74414053 187.1925843 -72.9375 189.1875 C-70.86155665 191.49203037 -68.87757728 193.78869179 -66.96484375 196.234375 C-64.11036331 199.67407004 -60.77512273 202.14394079 -57.125 204.6875 C-56.50496094 205.13738281 -55.88492188 205.58726562 -55.24609375 206.05078125 C-51.60886638 208.692834 -51.60886638 208.692834 -47.25 209.3125 C-47.25 209.9725 -47.25 210.6325 -47.25 211.3125 C-32.0466399 219.34446383 -16.76031945 222.85284604 0.4375 222.625 C1.66533203 222.62822266 2.89316406 222.63144531 4.15820312 222.63476562 C15.42026029 222.56876529 25.21024498 220.97617211 35.625 216.6875 C36.91917847 216.16071655 36.91917847 216.16071655 38.23950195 215.62329102 C45.58810045 212.54462945 52.20968677 208.89164434 58.75 204.3125 C59.58917969 203.72597656 60.42835938 203.13945313 61.29296875 202.53515625 C66.51275928 198.67933109 70.72484324 194.38732048 74.75 189.3125 C75.471875 188.40371094 76.19375 187.49492188 76.9375 186.55859375 C86.76552488 173.82532503 92.46164189 161.68167524 96.75 146.3125 C97.32041016 144.42917969 97.32041016 144.42917969 97.90234375 142.5078125 C99.23128581 137.05393721 99.0399563 131.51806365 99 125.9375 C99.00773438 124.865 99.01546875 123.7925 99.0234375 122.6875 C99.00710599 115.97524972 98.29228022 109.83580731 96.75 103.3125 C96.46769531 101.80816406 96.46769531 101.80816406 96.1796875 100.2734375 C91.07441254 76.47278944 74.45730272 56.49930993 54.6171875 43.21484375 C44.44989317 36.78517181 34.48546104 32.0180818 22.75 29.3125 C21.95851563 29.10625 21.16703125 28.9 20.3515625 28.6875 C-13.94345457 20.89809549 -49.04735808 35.04139802 -72.890625 59.5859375 Z " fill="#040404" transform="translate(561.25,386.6875)"/>
<path d="M0 0 C5.28 0 10.56 0 16 0 C16 158.4 16 316.8 16 480 C-222.92 480 -461.84 480 -708 480 C-708 474.72 -708 469.44 -708 464 C-474.36 464 -240.72 464 0 464 C0 310.88 0 157.76 0 0 Z " fill="#060606" transform="translate(934,465)"/>
<path d="M0 0 C238.92 0 477.84 0 724 0 C724 5.28 724 10.56 724 16 C490.36 16 256.72 16 16 16 C16 169.12 16 322.24 16 480 C10.72 480 5.44 480 0 480 C0 321.6 0 163.2 0 0 Z " fill="#060606" transform="translate(119,116)"/>
<path d="M0 0 C0.73286224 -0.0061734 1.46572449 -0.0123468 2.22079468 -0.01870728 C33.07896911 -0.18585842 63.99565495 10.15040402 88.1875 29.4375 C89.156875 30.20449219 90.12625 30.97148437 91.125 31.76171875 C95.70803476 35.44886772 100.18445509 39.11162889 104.1875 43.4375 C104.1875 44.0975 104.1875 44.7575 104.1875 45.4375 C104.75726562 45.67339844 105.32703125 45.90929687 105.9140625 46.15234375 C113.38978614 50.37831124 118.8240803 59.21336891 123.1875 66.4375 C123.8371875 67.51128906 124.486875 68.58507812 125.15625 69.69140625 C130.79171561 79.18904077 135.24709565 88.92502457 138.51171875 99.5 C139.14670995 101.47869883 139.14670995 101.47869883 140.2109375 103.36328125 C141.36015058 105.80420983 141.7297707 107.95626122 142.125 110.625 C142.65321958 114.1450553 143.22502742 117.61034795 143.98046875 121.08984375 C147.64149091 138.12397431 148.25483767 156.6724276 143.1875 173.4375 C142.85684441 175.12153663 142.54371921 176.80912995 142.25 178.5 C141.10198875 184.33415554 139.18430442 189.84644763 137.1875 195.4375 C136.85105469 196.44554687 136.51460937 197.45359375 136.16796875 198.4921875 C131.08053875 212.90956863 122.60921039 225.51104042 113.1875 237.4375 C112.38119141 238.58798828 112.38119141 238.58798828 111.55859375 239.76171875 C110.87990234 240.59123047 110.87990234 240.59123047 110.1875 241.4375 C109.5275 241.4375 108.8675 241.4375 108.1875 241.4375 C107.94773437 242.00082031 107.70796875 242.56414062 107.4609375 243.14453125 C95.24155855 265.14690992 61.03122965 279.6983101 38.1875 286.4375 C37.50494141 286.65212891 36.82238281 286.86675781 36.11914062 287.08789062 C6.60618843 296.12246783 -30.03349055 291.89165925 -57.8125 279.4375 C-58.46089844 279.15036133 -59.10929687 278.86322266 -59.77734375 278.56738281 C-82.95363057 268.11998256 -103.02812238 251.78013678 -117.234375 230.63671875 C-118.69223822 228.46553826 -118.69223822 228.46553826 -120.328125 226.9765625 C-123.68370845 223.49735229 -125.58636441 218.68905404 -127.8125 214.4375 C-128.43125 213.2825 -129.05 212.1275 -129.6875 210.9375 C-130.8125 208.4375 -130.8125 208.4375 -130.8125 205.4375 C-131.4725 205.4375 -132.1325 205.4375 -132.8125 205.4375 C-138.66147416 192.42517546 -141.54235903 179.81680326 -143.44287109 165.69555664 C-143.77704686 163.27915804 -143.77704686 163.27915804 -144.8125 160.4375 C-145.08354259 155.06839277 -145.05772826 149.68793652 -145.0625 144.3125 C-145.06350708 143.53806549 -145.06451416 142.76363098 -145.06555176 141.96572876 C-145.05570624 130.82914005 -144.71683117 120.26385791 -141.8125 109.4375 C-141.49925781 108.24640625 -141.18601562 107.0553125 -140.86328125 105.828125 C-139.30962756 100.39954846 -137.49052648 95.35794009 -134.80859375 90.390625 C-133.66296343 88.14429104 -132.77450281 85.85532464 -131.875 83.5 C-129.94836419 78.54908329 -127.50663824 74.00870177 -124.8125 69.4375 C-124.1525 69.4375 -123.4925 69.4375 -122.8125 69.4375 C-122.55597656 68.54546875 -122.29945313 67.6534375 -122.03515625 66.734375 C-120.80485124 63.41687522 -119.49555668 61.39124098 -117.25 58.6875 C-116.53714844 57.82898438 -115.82429688 56.97046875 -115.08984375 56.0859375 C-111.40353436 51.79894304 -107.66485279 47.57622238 -103.8125 43.4375 C-103.17699219 42.74785156 -102.54148437 42.05820312 -101.88671875 41.34765625 C-96.45956564 35.67330362 -90.34905994 30.7817983 -83.8125 26.4375 C-83.1525 26.4375 -82.4925 26.4375 -81.8125 26.4375 C-81.8125 25.7775 -81.8125 25.1175 -81.8125 24.4375 C-72.99615862 17.87053339 -62.94873112 13.51658997 -52.8125 9.4375 C-51.69359375 8.9734375 -50.5746875 8.509375 -49.421875 8.03125 C-33.24767601 1.74554234 -17.19799963 0.0613408 0 0 Z M-31.8125 25.4375 C-32.91722656 25.70433594 -34.02195312 25.97117187 -35.16015625 26.24609375 C-63.43823697 33.97703927 -91.3145918 54.88315469 -106.33203125 79.9765625 C-108.21400155 83.52867378 -108.21400155 83.52867378 -108.8125 87.4375 C-109.4725 87.4375 -110.1325 87.4375 -110.8125 87.4375 C-111.77337136 89.33204824 -112.73108969 91.22819581 -113.6875 93.125 C-114.22117187 94.18074219 -114.75484375 95.23648438 -115.3046875 96.32421875 C-117.3768444 100.6027396 -118.94549336 104.4983756 -119.75 109.1875 C-120.53958708 113.39236454 -121.67340291 117.31242875 -123.12890625 121.33203125 C-124.71092629 126.20465296 -124.98424519 130.92785945 -125.015625 136.01953125 C-125.02132507 136.75137131 -125.02702515 137.48321136 -125.03289795 138.23722839 C-125.04232207 139.78793916 -125.04887162 141.33866971 -125.05273438 142.8894043 C-125.06231238 145.2046482 -125.09330421 147.51895334 -125.125 149.83398438 C-125.2185148 162.78457206 -124.0297616 175.43509508 -118.8125 187.4375 C-118.30926924 188.67682909 -117.80667773 189.91641791 -117.3046875 191.15625 C-111.63143904 204.57519056 -105.25954503 217.24540052 -95.66015625 228.30078125 C-93.8125 230.4375 -93.8125 230.4375 -91.8125 233.4375 C-91.1525 233.4375 -90.4925 233.4375 -89.8125 233.4375 C-89.56886719 234.01242187 -89.32523437 234.58734375 -89.07421875 235.1796875 C-82.53984527 246.87277688 -64.80210565 256.21765683 -52.8125 261.4375 C-51.70777344 261.92863281 -50.60304688 262.41976562 -49.46484375 262.92578125 C-18.82468605 276.10350683 15.05336403 275.59418926 46.1875 264.4375 C48.97459967 263.27355626 51.56551986 261.93116901 54.1875 260.4375 C55.0228125 259.99664063 55.858125 259.55578125 56.71875 259.1015625 C79.32561507 247.09960324 100.13919828 229.06151842 111.1875 205.4375 C111.1875 204.7775 111.1875 204.1175 111.1875 203.4375 C111.8475 203.4375 112.5075 203.4375 113.1875 203.4375 C113.5175 201.4575 113.8475 199.4775 114.1875 197.4375 C114.8475 197.4375 115.5075 197.4375 116.1875 197.4375 C125.71448453 168.10342511 130.09734952 137.11563471 119.1875 107.4375 C118.58962796 105.52531855 118.00528776 103.60882921 117.4375 101.6875 C117.07398438 100.45773437 117.07398438 100.45773437 116.703125 99.203125 C116.53296875 98.62046875 116.3628125 98.0378125 116.1875 97.4375 C115.5275 97.4375 114.8675 97.4375 114.1875 97.4375 C114.105 96.6125 114.0225 95.7875 113.9375 94.9375 C113.02302731 90.66996079 111.26526822 87.24513106 109.1875 83.4375 C108.5275 83.4375 107.8675 83.4375 107.1875 83.4375 C106.92839844 82.54289062 106.66929687 81.64828125 106.40234375 80.7265625 C101.45155 67.32280578 85.77357767 54.40037285 74.625 46.3125 C73.71621094 45.64992188 72.80742188 44.98734375 71.87109375 44.3046875 C67.40879867 40.832936 67.40879867 40.832936 62.1875 39.4375 C62.1875 38.7775 62.1875 38.1175 62.1875 37.4375 C59.68867273 36.33061656 57.18850271 35.22694889 54.6875 34.125 C53.99140625 33.81626953 53.2953125 33.50753906 52.578125 33.18945312 C45.24117616 29.96255433 37.98049801 27.2150874 30.1875 25.3125 C29.1975 25.05919922 29.1975 25.05919922 28.1875 24.80078125 C9.16783288 20.08301226 -12.85774781 20.64171932 -31.8125 25.4375 Z " fill="#F9F9F9" transform="translate(561.8125,364.5625)"/>
<path d="M0 0 C2.07382202 -0.38768005 2.07382202 -0.38768005 4.66162109 -0.40405273 C6.11355362 -0.42307899 6.11355362 -0.42307899 7.59481812 -0.44248962 C8.64376251 -0.43955399 9.69270691 -0.43661835 10.7734375 -0.43359375 C11.84872711 -0.4388356 12.92401672 -0.44407745 14.03189087 -0.44947815 C16.30998876 -0.45591089 18.58811982 -0.45454526 20.86621094 -0.44604492 C24.35411828 -0.43755085 27.84038031 -0.46625497 31.328125 -0.49804688 C33.53906201 -0.49965929 35.75000192 -0.49908058 37.9609375 -0.49609375 C39.00583344 -0.50732773 40.05072937 -0.51856171 41.12728882 -0.53013611 C48.41527902 -0.45996149 48.41527902 -0.45996149 51.50244141 1.96850586 C51.99663574 2.63889893 52.49083008 3.30929199 53 4 C56.14930893 5.04976964 58.38814456 5.10131595 61.6875 5.0625 C62.68136719 5.05347656 63.67523438 5.04445313 64.69921875 5.03515625 C65.45847656 5.02355469 66.21773438 5.01195312 67 5 C66.6596875 5.44988281 66.319375 5.89976562 65.96875 6.36328125 C64.30562898 8.57045516 62.65143246 10.78406515 61 13 C60.36191406 13.8559375 59.72382813 14.711875 59.06640625 15.59375 C49.49986522 28.46237323 49.49986522 28.46237323 43 43 C42.34 43 41.68 43 41 43 C39.04911777 48.61854082 37.36827653 54.21113776 36 60 C35.34 60 34.68 60 34 60 C33.814375 61.72863281 33.814375 61.72863281 33.625 63.4921875 C33.08516906 67.8089342 32.11652019 71.9259132 31 76.125 C28.50257469 85.62607454 27.8136488 94.41733464 27.81469727 104.20996094 C27.81253292 106.46569331 27.79440997 108.72091787 27.77539062 110.9765625 C27.72808758 122.9296982 28.87118395 134.45684709 31.875 146.0625 C32.12781738 147.04802856 32.12781738 147.04802856 32.38574219 148.0534668 C33.82509109 153.56941894 35.49766552 159.00630547 37.265625 164.42578125 C38 167 38 167 38 170 C38.66 170 39.32 170 40 170 C40.50660156 171.32064453 40.50660156 171.32064453 41.0234375 172.66796875 C41.69246094 174.41013672 41.69246094 174.41013672 42.375 176.1875 C42.81585938 177.33605469 43.25671875 178.48460937 43.7109375 179.66796875 C44.78852143 182.45335994 45.8836443 185.22997721 47 188 C47.66 188 48.32 188 49 188 C50.19140625 189.765625 50.19140625 189.765625 51.5625 192.25 C55.46800631 198.99325104 60.05055783 206.29467346 65.76953125 211.66015625 C67 213 67 213 67 216 C43.24 216 19.48 216 -5 216 C-6.32 213.36 -7.64 210.72 -9 208 C-9.84236145 206.53481606 -10.69423068 205.0749811 -11.5625 203.625 C-13.83766206 199.60508176 -15.16992405 195.62544691 -16.32421875 191.1640625 C-16.96952745 188.74078548 -16.96952745 188.74078548 -19 186 C-19.73222428 183.80609026 -20.41508396 181.59541546 -21.0625 179.375 C-21.95484663 175.38194837 -21.95484663 175.38194837 -24 172 C-24.33333333 169.66666667 -24.66666667 167.33333333 -25 165 C-25.33 164.67 -25.66 164.34 -26 164 C-26.44820715 160.91151377 -26.81850426 157.82406589 -27.16210938 154.72265625 C-27.63391803 150.81776836 -28.49568677 147.61152243 -30 144 C-34.88775956 121.88439657 -33.1511162 96.06175118 -29 74 C-28.86078125 73.22591797 -28.7215625 72.45183594 -28.578125 71.65429688 C-24.02771981 46.90093533 -14.00187787 21.00281681 0 0 Z " fill="#FCFCFC" transform="translate(379,400)"/>
<path d="M0 0 C25.08 0 50.16 0 76 0 C76 71.28 76 142.56 76 216 C51.91 216 27.82 216 3 216 C3.86319463 212.54722148 4.92414383 209.63312376 6.3125 206.375 C6.76109375 205.30507813 7.2096875 204.23515625 7.671875 203.1328125 C8.46225967 201.26843455 9.26119203 199.4075862 10.078125 197.5546875 C14.27896366 187.71939063 16.54208719 177.0643083 18.50390625 166.578125 C18.87594581 164.64469109 19.28599192 162.71850614 19.71484375 160.796875 C26.78339408 128.30264363 25.57105188 93.66520769 20 61 C19.505 60.505 19.505 60.505 19 60 C18.76572222 57.98405418 18.58663876 55.961526 18.4375 53.9375 C18.31181641 52.28041016 18.31181641 52.28041016 18.18359375 50.58984375 C18.09271484 49.30787109 18.09271484 49.30787109 18 48 C17.34 48 16.68 48 16 48 C15.87625 47.23300781 15.7525 46.46601563 15.625 45.67578125 C14.17045963 37.84853586 11.94765733 30.62001491 9.125 23.1875 C8.79757812 22.31714111 8.47015625 21.44678223 8.1328125 20.55004883 C6.13366564 15.41308087 3.82905476 10.70444558 0.94873047 6.0012207 C0 4 0 4 0 0 Z " fill="#FDFDFD" transform="translate(782,400)"/>
<path d="M0 0 C9.99682241 -0.20920934 19.99311802 -0.36878465 29.99168968 -0.46630955 C34.63538712 -0.51313568 39.2775791 -0.57656682 43.92041016 -0.67895508 C48.40743247 -0.77727967 52.893014 -0.8306671 57.38103104 -0.85389519 C59.08672377 -0.87043113 60.79234408 -0.90272412 62.49741745 -0.95157051 C77.50814969 -1.36420067 77.50814969 -1.36420067 83.84228516 4.3605957 C85.23172179 5.90389151 86.61789732 7.45013282 88 9 C90.89071334 11.11827424 93.90655769 12.94408023 97 14.75 C97.7832666 15.21680176 98.5665332 15.68360352 99.37353516 16.16455078 C104.79719599 19.36877622 110.2466031 22.42356301 116 25 C116.86882812 25.40476562 117.73765625 25.80953125 118.6328125 26.2265625 C126.78467067 29.84714256 135.1765761 32.2849883 143.80957031 34.44775391 C145.74121054 34.9347546 147.66438426 35.45507674 149.5859375 35.98046875 C174.85720978 41.92172813 203.55678201 38.62386084 228 31 C229.77310547 30.46246094 229.77310547 30.46246094 231.58203125 29.9140625 C248.83967925 24.24857154 264.16676043 14.67700715 278.1875 3.28515625 C280 2 280 2 282 2 C282 1.34 282 0.68 282 0 C305.43 0 328.86 0 353 0 C350.21845471 4.86770425 347.70420421 8.90250152 344.3125 13.25 C343.66438354 14.08144531 343.66438354 14.08144531 343.00317383 14.9296875 C327.04561004 35.31812999 327.04561004 35.31812999 322 37 C322 37.66 322 38.32 322 39 C320.45111498 40.41706502 318.83238466 41.75809496 317.1875 43.0625 C315.84751953 44.13177734 315.84751953 44.13177734 314.48046875 45.22265625 C313.93747005 45.63051833 313.39447136 46.03838041 312.83501816 46.45860195 C310.88995005 48.01014009 310.88995005 48.01014009 309.09421158 50.20070744 C302.95933162 56.56132399 297.9235353 57.84683529 289.30926514 58.12266541 C284.90316957 58.19960763 280.50295384 58.16312758 276.09667969 58.11694336 C273.66308189 58.12423398 271.22949308 58.13539863 268.79592896 58.15013123 C262.89180265 58.17535434 256.9886828 58.15890746 251.08469817 58.1223424 C244.20261637 58.08131873 237.32079302 58.08640989 230.43862 58.09274239 C218.1580725 58.10229355 205.87804853 58.06741118 193.59765625 58.00854492 C181.69189529 57.95148985 169.78674727 57.93029726 157.88085938 57.94702148 C144.89761542 57.96520527 131.91464033 57.96464877 118.93141866 57.93056399 C117.54659733 57.92694229 116.161776 57.92332433 114.77695465 57.91971016 C113.75505041 57.91699424 113.75505041 57.91699424 112.71250163 57.91422344 C107.91913053 57.90260155 103.12585977 57.90376053 98.33248138 57.9094677 C91.88075434 57.91650779 85.42964369 57.8907937 78.97808456 57.84328651 C76.61058937 57.83055921 74.2430144 57.82800562 71.87549973 57.83635712 C68.64373735 57.84602801 65.41432134 57.81877487 62.18280029 57.78208923 C60.77720734 57.79909619 60.77720734 57.79909619 59.34321856 57.81644672 C53.6180571 57.70144484 50.57430107 56.62331789 46.46622968 52.57797343 C45.98237388 52.0572422 45.49851809 51.53651096 45 51 C42.82879502 48.78352881 40.64613062 46.93982166 38.125 45.125 C34.78363111 42.6542263 31.86193708 40.02547635 29 37 C28.401875 36.443125 27.80375 35.88625 27.1875 35.3125 C26 34 26 34 26 32 C25.443125 31.814375 24.88625 31.62875 24.3125 31.4375 C21.49487221 29.68600164 20.21903815 27.70547727 18.44140625 24.94921875 C16.97443227 22.85775118 16.97443227 22.85775118 14.734375 20.78125 C11.36722976 17.35638227 8.55228967 13.65890654 5.6875 9.8125 C5.13771484 9.08869141 4.58792969 8.36488281 4.02148438 7.61914062 C3.50263672 6.92626953 2.98378906 6.23339844 2.44921875 5.51953125 C1.97830811 4.89151611 1.50739746 4.26350098 1.0222168 3.61645508 C0 2 0 2 0 0 Z " fill="#FDFDFD" transform="translate(382,627)"/>
<path d="M0 0 C6.9048238 -0.15206382 13.80921647 -0.25717845 20.71533203 -0.32958984 C23.06478002 -0.35977339 25.41411524 -0.40072541 27.76318359 -0.45263672 C31.13928016 -0.52537898 34.51388816 -0.55944133 37.890625 -0.5859375 C39.46738007 -0.63238907 39.46738007 -0.63238907 41.07598877 -0.67977905 C43.84404589 -0.68105817 46.3026488 -0.62155213 49 0 C52.42358858 3.54085176 53 5.06908054 53 10 C53.66 10 54.32 10 55 10 C55.4021875 11.051875 55.4021875 11.051875 55.8125 12.125 C56.96377639 15.00992171 56.96377639 15.00992171 58.375 17.75 C60.01661117 21.03322233 61.49451674 24.35884374 62.9609375 27.72265625 C63.91360539 29.81064639 64.96530566 31.79818519 66.0625 33.8125 C68.20302284 38.01025685 69.1600737 42.33326026 70.2109375 46.90625 C70.99426251 49.97750448 71.99491704 52.85314606 73.125 55.8125 C74.67436105 59.89717912 75.48784846 63.64671189 76 68 C76.495 69.4540625 76.495 69.4540625 77 70.9375 C84.12095203 92.7454156 80.45857078 121.44424466 79 144 C78.34 144 77.68 144 77 144 C76.9589917 144.72848145 76.9179834 145.45696289 76.87573242 146.20751953 C76.36808231 153.66061061 75.17215482 160.64667428 73.3125 167.875 C73.04848389 168.91712646 72.78446777 169.95925293 72.51245117 171.03295898 C70.39367308 179.10488273 67.61683424 186.47252706 64 194 C63.24976563 195.75763672 63.24976563 195.75763672 62.484375 197.55078125 C61.22677624 200.47304362 59.88842255 203.29592844 58.4375 206.125 C56.75848377 209.39934318 55.3762757 212.55931075 54 216 C32.55 216 11.1 216 -11 216 C-9.32288429 211.80721072 -8.6254886 210.28205015 -5.74609375 207.25 C-2.00131843 203.11088482 0.99891692 198.73542056 3.9375 194 C4.45183594 193.1747583 4.96617187 192.3495166 5.49609375 191.49926758 C12.92129263 179.41823697 18.6155595 167.84266657 22 154 C22.34804688 152.74703125 22.69609375 151.4940625 23.0546875 150.203125 C30.18068736 124.29069165 28.6423743 98.61911477 24.0625 72.4375 C23.90491211 71.52121826 23.74732422 70.60493652 23.58496094 69.66088867 C22.1525653 61.82792355 19.62190124 55.10449858 16 48 C15.24795006 46.29256811 14.4981996 44.58412262 13.75 42.875 C7.65494026 29.47310306 -0.73433278 17.39570566 -10 6 C-9.36191406 5.81824219 -8.72382812 5.63648438 -8.06640625 5.44921875 C-7.24011719 5.19785156 -6.41382813 4.94648438 -5.5625 4.6875 C-4.32693359 4.32205078 -4.32693359 4.32205078 -3.06640625 3.94921875 C-2.04353516 3.47935547 -2.04353516 3.47935547 -1 3 C-0.67 2.01 -0.34 1.02 0 0 Z " fill="#FCFCFC" transform="translate(689,400)"/>
<path d="M0 0 C23.1 0 46.2 0 70 0 C70 0.99 70 1.98 70 3 C69.34 3 68.68 3 68 3 C67.773125 4.11375 67.54625 5.2275 67.3125 6.375 C66.50423921 9.619269 65.40083429 12.31367148 63.8125 15.25 C42.19142134 57.09314634 39.96533219 109.27465926 47 155 C47.21897949 156.50071045 47.21897949 156.50071045 47.44238281 158.03173828 C48.44833116 164.57040252 49.92794034 170.72231051 52 177 C52.3000293 177.93021973 52.60005859 178.86043945 52.90917969 179.81884766 C53.88404665 182.82145778 54.87634238 185.81772286 55.875 188.8125 C56.22433594 189.86332764 56.57367188 190.91415527 56.93359375 191.99682617 C59.1635704 198.65229845 61.52285376 205.21195605 64.1875 211.70703125 C65 214 65 214 65 217 C43.55 217 22.1 217 0 217 C0 145.39 0 73.78 0 0 Z " fill="#FCFCFC" transform="translate(266,399)"/>
<path d="M0 0 C14.09264277 -0.96086201 27.15837739 2.27876045 39 10 C39.92425781 10.58652344 40.84851563 11.17304688 41.80078125 11.77734375 C50.51167722 17.66894559 60.99377832 27.23142766 63.453125 37.98046875 C63.70555432 39.64450939 63.86306139 41.32250198 64 43 C64.66 43 65.32 43 66 43 C72.34739356 59.81303651 69.3911729 76.32185713 62.578125 92.34375 C59.56651593 98.75556287 55.99128448 104.91203204 51 110 C49.515 110.495 49.515 110.495 48 111 C47.505 112.485 47.505 112.485 47 114 C44.9609375 115.68359375 44.9609375 115.68359375 42.375 117.4375 C41.53710938 118.01371094 40.69921875 118.58992187 39.8359375 119.18359375 C33.84609914 123.02006047 28.85277549 125.62810867 21.9375 127.1875 C21.25623047 127.35185547 20.57496094 127.51621094 19.87304688 127.68554688 C1.22556114 132.11007039 -14.42427786 129.38461758 -31 120 C-32.485 119.01 -32.485 119.01 -34 118 C-34 117.34 -34 116.68 -34 116 C-34.8353125 115.62875 -34.8353125 115.62875 -35.6875 115.25 C-40.71305491 112.53348383 -44.01162379 108.98752382 -47.3125 104.375 C-48.35857422 102.93253906 -48.35857422 102.93253906 -49.42578125 101.4609375 C-51 99 -51 99 -51 97 C-51.66 97 -52.32 97 -53 97 C-62.04596633 81.49262915 -63.10435096 63.42545212 -59 46.21875 C-57.53646169 41.50798607 -55.47990639 37.25406867 -53 33 C-52.34 33 -51.68 33 -51 33 C-50.55269531 33.88042969 -50.10539062 34.76085937 -49.64453125 35.66796875 C-49.03996094 36.82941406 -48.43539063 37.99085938 -47.8125 39.1875 C-47.22082031 40.33605469 -46.62914062 41.48460937 -46.01953125 42.66796875 C-43.37446791 47.03206746 -40.92646543 50.35784486 -36 52 C-36 52.66 -36 53.32 -36 54 C-27.00361176 56.87884424 -16.86833659 57.59130986 -8 54 C-5.74822909 52.75639479 -5.74822909 52.75639479 -3.75 51.375 C-0.20809249 49 -0.20809249 49 2 49 C2.2475 48.46375 2.495 47.9275 2.75 47.375 C4 45 4 45 6 42.125 C10.91372307 34.44730771 10.89879683 25.81944387 10 17 C8.39631342 9.95653562 4.9326768 5.15688938 0 0 Z " fill="#030303" transform="translate(558,447)"/>
<path d="M0 0 C2.52019923 0.03652176 5.03339146 0.1364831 7.55171204 0.23868847 C9.31140832 0.26296309 11.07119302 0.28145494 12.83100891 0.29442883 C17.4431556 0.34385821 22.04990209 0.47133296 26.65992737 0.61558056 C31.37181018 0.74904409 36.08457405 0.80803918 40.79780579 0.87345409 C50.030636 1.01250162 59.25947355 1.23408753 68.48921204 1.50821972 C68.56354998 7.37977379 68.61790321 13.25105191 68.65400696 19.12296581 C68.66906302 21.11910813 68.6895123 23.11521753 68.7155304 25.11124706 C68.75205364 27.98584157 68.76897041 30.85999744 68.78218079 33.73478222 C68.79766464 34.62251324 68.8131485 35.51024426 68.82910156 36.42487621 C68.83112692 43.93679942 66.62280837 48.921659 61.48921204 54.50821972 C55.1739663 59.16155868 48.04507325 58.65099692 40.53657532 58.62174511 C39.05759514 58.62196415 39.05759514 58.62196415 37.54873657 58.62218761 C34.30230988 58.62149311 31.05594116 58.61372234 27.80952454 58.60587597 C25.55365531 58.60401015 23.29778567 58.60258702 21.04191589 58.60158825 C15.113753 58.59777599 9.18561473 58.58795673 3.25746155 58.57688427 C-2.79549323 58.56664238 -8.84845201 58.56208468 -14.90141296 58.55704784 C-26.77121543 58.5463333 -38.64099965 58.52927238 -50.51078796 58.50821972 C-49.57933131 57.24752335 -48.6452082 55.98879687 -47.71000671 54.73087597 C-47.19011169 54.02970654 -46.67021667 53.3285371 -46.13456726 52.60612011 C-44.6072938 50.63290392 -43.00812624 48.78479412 -41.32328796 46.94571972 C-34.1974968 38.90555713 -27.95121783 30.02306645 -22.32328796 20.88321972 C-21.71742859 19.9055212 -21.11156921 18.92782269 -20.48735046 17.92049694 C-18.46110943 14.57290166 -18.46110943 14.57290166 -17.02348328 11.08654308 C-13.1122124 2.89441301 -9.15997578 0.12621642 0 0 Z " fill="#FDFDFD" transform="translate(789.5107879638672,625.4917802810669)"/>
<path d="M0 0 C12.67395348 -0.06952392 25.34786156 -0.12282357 38.02196693 -0.15543652 C43.90712853 -0.17108943 49.79215961 -0.19232117 55.67724609 -0.22631836 C61.35714373 -0.2589247 67.03691586 -0.27685583 72.71689987 -0.28463173 C74.88342642 -0.29017291 77.04994613 -0.30099345 79.21641922 -0.31719017 C82.25201489 -0.33898105 85.28709255 -0.34196619 88.32275391 -0.34057617 C89.21755463 -0.351362 90.11235535 -0.36214783 91.03427124 -0.3732605 C98.20666378 -0.33774459 103.1436746 1.68841051 108.62310791 6.50415039 C113.56305007 11.87088219 114.57990878 17.83327391 114.390625 24.875 C114.38496521 25.68493408 114.37930542 26.49486816 114.37347412 27.3293457 C114.3512902 29.88686167 114.30113203 32.44291591 114.25 35 C114.22991157 36.74607335 114.21166493 38.49216892 114.1953125 40.23828125 C114.15148505 44.49274075 114.08258721 48.74612357 114 53 C103.16911753 53.23197199 92.33882824 53.40951684 81.50596523 53.51812172 C76.47533206 53.57025561 71.4464013 53.64092757 66.41674805 53.75439453 C61.56013921 53.86326863 56.70516446 53.92288479 51.84742928 53.94877243 C49.99688041 53.9672127 48.14641849 54.00322672 46.29656792 54.05730057 C31.81204519 54.46376078 31.81204519 54.46376078 27.33303833 50.84564209 C25.4951849 48.28154701 24.19788636 45.91083533 23 43 C22.37594228 41.68705171 21.75115758 40.37444814 21.125 39.0625 C20.82464844 38.423125 20.52429688 37.78375 20.21484375 37.125 C18.04033192 33.3213523 15.13500981 30.09258163 12.31640625 26.75390625 C9.60979291 23.53609443 7.0537044 20.22032656 4.5078125 16.875 C3.10720348 14.98579071 3.10720348 14.98579071 1.41748047 13.76953125 C-0.67130298 11.16196969 -0.29336973 9.09446156 -0.1875 5.8125 C-0.16042969 4.72582031 -0.13335938 3.63914062 -0.10546875 2.51953125 C-0.07066406 1.68808594 -0.03585937 0.85664063 0 0 Z " fill="#F8F8F8" transform="translate(745,336)"/>
<path d="M0 0 C0.97623322 -0.00029205 1.95246643 -0.00058411 2.95828247 -0.00088501 C6.17231252 0.00050391 9.38610829 0.01604466 12.60009766 0.03173828 C14.83354567 0.03546996 17.06699532 0.0383162 19.30044556 0.04031372 C25.16945949 0.04793794 31.03837392 0.06757611 36.90734863 0.08972168 C42.89997003 0.11020615 48.89260756 0.11932101 54.88525391 0.12939453 C66.63659963 0.15082308 78.38787161 0.18494447 90.13916016 0.22705078 C89.19085289 1.51124042 88.23980014 2.79340296 87.28759766 4.07470703 C86.75827637 4.78892822 86.22895508 5.50314941 85.68359375 6.23901367 C83.70007345 8.79225519 81.45199792 10.96928058 79.13916016 13.22705078 C74.22818441 18.34770864 69.88770504 23.77766992 65.76416016 29.53955078 C65.33530518 30.13823975 64.9064502 30.73692871 64.46459961 31.35375977 C62.44696506 34.21660329 60.57702868 37.02739831 59.13916016 40.22705078 C58.47916016 40.22705078 57.81916016 40.22705078 57.13916016 40.22705078 C56.89166016 40.88705078 56.64416016 41.54705078 56.38916016 42.22705078 C54.82651634 45.97739593 52.95613261 49.59310588 51.13916016 53.22705078 C25.72916016 53.22705078 0.31916016 53.22705078 -25.86083984 53.22705078 C-25.90208984 46.83330078 -25.94333984 40.43955078 -25.98583984 33.85205078 C-26.00404785 31.83418457 -26.02225586 29.81631836 -26.04101562 27.73730469 C-26.04685535 26.1427436 -26.05195214 24.54817953 -26.05615234 22.95361328 C-26.06638428 22.12176514 -26.07661621 21.28991699 -26.0871582 20.43286133 C-26.08779026 18.36288277 -25.98407094 16.29335805 -25.86083984 14.22705078 C-25.20083984 13.56705078 -24.54083984 12.90705078 -23.86083984 12.22705078 C-23.72033203 11.59025391 -23.57982422 10.95345703 -23.43505859 10.29736328 C-22.71815064 7.7125931 -21.70843568 6.81818016 -19.67333984 5.10205078 C-19.10228516 4.60447266 -18.53123047 4.10689453 -17.94287109 3.59423828 C-12.27194493 -0.12963443 -6.53192047 -0.05141543 0 0 Z " fill="#FDFDFD" transform="translate(291.86083984375,335.77294921875)"/>
<path d="M0 0 C2.84017801 1.20302199 4.43219525 2.92253682 6.55859375 5.1484375 C7.35007813 5.96570313 8.1415625 6.78296875 8.95703125 7.625 C10.02824219 8.75035156 10.02824219 8.75035156 11.12109375 9.8984375 C14.02247556 12.87058472 16.98596982 15.67782716 20.12109375 18.3984375 C24.45252531 22.1620784 28.43774851 26.05775068 32.12109375 30.4609375 C34.55304521 33.34071633 37.12663983 35.59501141 40.12109375 37.8984375 C42.94113696 40.57386311 45.51648528 43.3498838 47.99609375 46.3359375 C50.6407461 49.49712351 53.54082166 52.02705901 56.80078125 54.5390625 C58.12109375 55.8984375 58.12109375 55.8984375 58.12109375 58.8984375 C56.86328125 60.23046875 56.86328125 60.23046875 54.99609375 61.7109375 C51.45304113 64.65091733 48.24856778 67.78069521 45.05810547 71.08935547 C35.43178838 81.03214 25.52536386 88.73327737 11.12109375 89.2734375 C-0.05691547 88.87046852 -10.029657 83.76721225 -17.87890625 75.8984375 C-28.42714087 63.8521073 -31.71884252 54.94843506 -31.05371094 39.03466797 C-30.38020053 30.80391931 -25.55351038 23.68485649 -19.87890625 17.8984375 C-19.21890625 17.8984375 -18.55890625 17.8984375 -17.87890625 17.8984375 C-17.65203125 17.3209375 -17.42515625 16.7434375 -17.19140625 16.1484375 C-15.54107147 13.31929216 -13.44632048 11.91569154 -10.87890625 9.8984375 C-9.52503689 8.24840922 -8.19212483 6.5809988 -6.87890625 4.8984375 C-2.50180187 -0.13523253 -2.50180187 -0.13523253 0 0 Z " fill="#030303" transform="translate(145.87890625,867.1015625)"/>
<path d="M0 0 C23.76 0 47.52 0 72 0 C79 13 79 13 79 15 C79.66 15 80.32 15 81 15 C84 20.75 84 20.75 84 23 C84.66 23 85.32 23 86 23 C87.74913672 25.42869997 89.39113039 27.85596987 91 30.375 C91.89380661 31.75912338 92.78956032 33.14199184 93.6875 34.5234375 C94.08324219 35.14138184 94.47898437 35.75932617 94.88671875 36.39599609 C96.03868439 38.15716319 96.03868439 38.15716319 98 40 C97.90453292 43.53228187 97.09805885 44.88832186 94.75 47.5625 C92.22663922 49.79911524 89.64583422 51.91118351 87 54 C86.58949402 54.52566559 86.17898804 55.05133118 85.75604248 55.59292603 C83.10015999 57.72101984 80.89206986 57.38138112 77.52832031 57.38818359 C76.54966507 57.39606903 76.54966507 57.39606903 75.55123901 57.40411377 C73.39329097 57.41732124 71.23608065 57.40856967 69.078125 57.3984375 C67.57460387 57.40045902 66.0710837 57.4033711 64.56756592 57.40713501 C61.41343875 57.41156016 58.25956631 57.40512503 55.10546875 57.39111328 C51.0760311 57.37407978 47.04719552 57.38382376 43.0177803 57.40183067 C39.91037531 57.41271382 36.80311102 57.40920051 33.6957016 57.4014473 C32.21104612 57.39945472 30.72637761 57.40187127 29.24173737 57.40888596 C27.15723808 57.41656893 25.07368713 57.4048002 22.98925781 57.38818359 C21.80583801 57.38579681 20.62241821 57.38341003 19.40313721 57.38095093 C14.87148328 56.8736726 10.79717521 55.61241888 7.328125 52.5 C6.97234375 52.005 6.6165625 51.51 6.25 51 C4.19445436 48.11195857 4.19445436 48.11195857 2.25 46.25 C0.60588369 44.60588369 0.0290722 43.45279738 -0.12025452 41.12704468 C-0.11803391 40.36759552 -0.11581329 39.60814636 -0.11352539 38.82568359 C-0.11340454 37.95290771 -0.11328369 37.08013184 -0.11315918 36.1809082 C-0.10804321 35.26269287 -0.10292725 34.34447754 -0.09765625 33.3984375 C-0.09664917 32.55514893 -0.09564209 31.71186035 -0.09460449 30.84301758 C-0.08936476 27.68699792 -0.07540353 24.53099762 -0.0625 21.375 C-0.041875 14.32125 -0.02125 7.2675 0 0 Z " fill="#FCFCFC" transform="translate(266,627)"/>
<path d="M0 0 C70.29 0 140.58 0 213 0 C211.66610628 2.66778745 210.31021572 2.98375734 207.625 4.2421875 C206.26955078 4.88220703 206.26955078 4.88220703 204.88671875 5.53515625 C203.93410156 5.97730469 202.98148438 6.41945313 202 6.875 C201.07832031 7.30941406 200.15664063 7.74382813 199.20703125 8.19140625 C196.47703208 9.47362025 193.74043056 10.7402515 191 12 C190.20988525 12.36512695 189.41977051 12.73025391 188.60571289 13.10644531 C180.61948506 16.73647037 172.36888359 19.40113656 164 22 C162.76636719 22.38542969 161.53273438 22.77085937 160.26171875 23.16796875 C115.64930295 35.6747792 63.1395683 30.9185149 21 12 C20.10023438 11.60425781 19.20046875 11.20851563 18.2734375 10.80078125 C16.1780014 9.87632415 14.08697693 8.94335573 12 8 C12 7.34 12 6.68 12 6 C10.700625 5.5978125 10.700625 5.5978125 9.375 5.1875 C6.08208036 4.02888013 3.08872125 2.61790161 0 1 C0 0.67 0 0.34 0 0 Z " fill="#F7F7F7" transform="translate(452,694)"/>
<path d="M0 0 C0.89844635 -0.00635468 1.7968927 -0.01270935 2.7225647 -0.01925659 C20.99129407 -0.09955182 38.66790601 2.01800812 56.3125 6.8125 C57.93865234 7.23015625 57.93865234 7.23015625 59.59765625 7.65625 C70.20679888 10.46343673 80.36682943 14.22306365 90.125 19.25 C90.73408203 19.56130859 91.34316406 19.87261719 91.97070312 20.19335938 C93.42094929 20.93561135 94.86722664 21.68561116 96.3125 22.4375 C96.3125 22.7675 96.3125 23.0975 96.3125 23.4375 C32.9525 23.4375 -30.4075 23.4375 -95.6875 23.4375 C-92.53556132 21.07354599 -90.69878676 19.88508468 -87.1875 18.5625 C-84.49637979 17.53491087 -81.83558912 16.50453719 -79.2109375 15.31640625 C-53.99826673 3.97442309 -27.38244744 0.09880888 0 0 Z " fill="#FCFCFC" transform="translate(557.6875,301.5625)"/>
<path d="M0 0 C0.99530228 -0.00021904 0.99530228 -0.00021904 2.01071167 -0.0004425 C4.20753225 0.00025508 6.40426842 0.00804025 8.60107422 0.01586914 C10.12279209 0.01773387 11.64451056 0.01915751 13.16622925 0.02015686 C17.17427219 0.02397773 21.18227898 0.03380435 25.19030762 0.04486084 C29.27904776 0.05508421 33.36779373 0.05965647 37.45654297 0.06469727 C45.48129915 0.07542699 53.50602594 0.09249826 61.53076172 0.11352539 C58.30541933 1.78447554 55.22360163 2.82658499 51.71826172 3.80102539 C44.57567145 5.95818353 38.05350541 8.92187854 31.38183594 12.2121582 C29.62293523 13.06864217 27.84477611 13.88523921 26.06591797 14.69946289 C13.96586612 20.38219056 2.86589258 28.01872508 -7.02612305 37.00976562 C-8.46923828 38.11352539 -8.46923828 38.11352539 -10.46923828 38.11352539 C-10.46923828 38.77352539 -10.46923828 39.43352539 -10.46923828 40.11352539 C-12.14892578 41.76977539 -12.14892578 41.76977539 -14.34423828 43.61352539 C-19.16362762 47.47753343 -19.16362762 47.47753343 -21.46923828 53.11352539 C-34.66923828 53.11352539 -47.86923828 53.11352539 -61.46923828 53.11352539 C-54.06923828 42.01352539 -54.06923828 42.01352539 -50.46923828 38.11352539 C-49.80923828 38.11352539 -49.14923828 38.11352539 -48.46923828 38.11352539 C-48.20296631 37.52273193 -47.93669434 36.93193848 -47.66235352 36.32324219 C-46.44255652 34.06410926 -45.18497398 32.57106974 -43.37939453 30.75805664 C-42.76555908 30.1401123 -42.15172363 29.52216797 -41.51928711 28.88549805 C-40.863396 28.23887207 -40.20750488 27.59224609 -39.53173828 26.92602539 C-38.8558667 26.25619629 -38.17999512 25.58636719 -37.48364258 24.89624023 C-32.07320422 19.59153708 -26.49539686 14.71563497 -20.46923828 10.11352539 C-19.94104492 9.7084375 -19.41285156 9.30334961 -18.86865234 8.88598633 C-7.24044629 -0.01335876 -7.24044629 -0.01335876 0 0 Z " fill="#FAFAFA" transform="translate(448.46923828125,335.886474609375)"/>
<path d="M0 0 C8.51091132 -0.20986069 17.02071675 -0.36910274 25.53358746 -0.46630955 C29.48793017 -0.51299957 33.440485 -0.57616604 37.39379883 -0.67895508 C41.21950753 -0.77778739 45.0435133 -0.83076875 48.87040138 -0.85389519 C50.31966748 -0.87034287 51.76885535 -0.902458 53.21738243 -0.95157051 C64.43058196 -1.31613385 71.84644695 1.38444254 80 9 C80 9.66 80 10.32 80 11 C80.88727783 11.41185547 80.88727783 11.41185547 81.79248047 11.83203125 C83.91043822 12.95261407 85.51424334 14.12491572 87.3203125 15.6875 C87.93350342 16.21657959 88.54669434 16.74565918 89.1784668 17.29077148 C89.82082275 17.85481689 90.46317871 18.4188623 91.125 19 C91.78862549 19.58015869 92.45225098 20.16031738 93.13598633 20.75805664 C107.7487423 33.63688588 107.7487423 33.63688588 113 42 C114.64646685 43.68662458 116.31183067 45.35511706 118 47 C121 50.62068966 121 50.62068966 121 53 C115.64323369 53.12353289 110.28729474 53.21430573 104.92944336 53.2746582 C103.10670533 53.29981397 101.28406828 53.33394285 99.46166992 53.37719727 C96.84268307 53.43780546 94.22502847 53.46619761 91.60546875 53.48828125 C90.78974899 53.51408768 89.97402924 53.5398941 89.1335907 53.56648254 C86.82885742 53.56762695 86.82885742 53.56762695 83 53 C81.1418457 50.62573242 81.1418457 50.62573242 80 48 C78.5292151 46.72105661 77.05447692 45.44444157 75.5234375 44.23828125 C74 43 74 43 71.75 40.6875 C61.62717662 30.79474079 47.56046665 19.52015555 34 15 C34 14.34 34 13.68 34 13 C33.3709375 12.82984375 32.741875 12.6596875 32.09375 12.484375 C27.99488337 11.32385252 24.11528593 10.18802767 20.375 8.125 C14.0341203 4.73091916 6.86564362 3.03303039 0 1 C0 0.67 0 0.34 0 0 Z " fill="#FAFAFA" transform="translate(608,336)"/>
<path d="M0 0 C0.93172028 -0.02251831 1.86344055 -0.04503662 2.82339478 -0.0682373 C7.09409145 -0.13953313 11.36461963 -0.19678893 15.63574219 -0.23535156 C17.88205328 -0.26191979 20.1282433 -0.30280173 22.37402344 -0.35839844 C25.62403338 -0.43786546 28.8717171 -0.47071926 32.12255859 -0.49414062 C33.61367661 -0.54362854 33.61367661 -0.54362854 35.13491821 -0.59411621 C42.80293004 -0.5723457 46.95134561 1.9276787 52.39599609 7.22460938 C55.95805389 11.11049061 56.02385614 15.33566426 55.87255859 20.43164062 C55.09035212 25.0158835 52.95585385 28.27083308 49.39599609 31.22460938 C43.34420925 34.47189733 38.06915116 34.70607091 31.27490234 34.72851562 C30.21617416 34.73850082 29.15744598 34.74848602 28.06663513 34.7587738 C25.83523448 34.77391118 23.6037664 34.78100096 21.37231445 34.78051758 C17.9721638 34.78708298 14.5749283 34.84162525 11.17529297 34.8984375 C9.00017268 34.90724009 6.82503861 34.91319395 4.64990234 34.91601562 C3.64133682 34.93757217 2.6327713 34.95912872 1.59364319 34.9813385 C-4.67268047 34.92095393 -8.27215846 33.79852331 -13.10545349 29.75732422 C-16.68006991 26.10121256 -16.91557934 22.21519843 -16.97900391 17.28710938 C-16.88358866 12.10288119 -16.22601504 9.14029709 -12.60400391 5.22460938 C-8.48897891 1.51105023 -5.50244947 0.12694577 0 0 Z " fill="#0A0A0A" transform="translate(782.60400390625,344.775390625)"/>
<path d="M0 0 C0.68491013 -0.00671722 1.36982025 -0.01343445 2.07548523 -0.02035522 C4.34027355 -0.03935685 6.60476583 -0.04326054 8.86962891 -0.04541016 C10.44520184 -0.05183693 12.02077358 -0.0585652 13.59634399 -0.06558228 C16.90003221 -0.07756067 20.20361582 -0.08126256 23.50732422 -0.08007812 C27.73656654 -0.07987498 31.96513656 -0.10716964 36.19421959 -0.14162254 C39.44907703 -0.16388332 42.70377251 -0.16791592 45.95869827 -0.16685867 C47.51759787 -0.16921616 49.07650182 -0.17804813 50.63532639 -0.19352341 C52.81855786 -0.21316672 55.00033786 -0.20735342 57.18359375 -0.1953125 C58.42474945 -0.19816254 59.66590515 -0.20101257 60.94467163 -0.20394897 C64.8273434 0.38200483 66.45558584 1.55764151 69.22119141 4.29052734 C71.3452045 8.12786822 71.51871548 11.57250752 71.53369141 15.91552734 C71.55044922 17.04216797 71.56720703 18.16880859 71.58447266 19.32958984 C71.22119141 22.29052734 71.22119141 22.29052734 70.19023132 23.95429993 C67.12379539 26.03524086 63.93023402 25.68213763 60.35327148 25.63110352 C59.55304062 25.6315416 58.75280975 25.63197968 57.92832947 25.63243103 C55.28221268 25.63034032 52.63672881 25.60699629 49.99072266 25.58349609 C48.15655361 25.57790114 46.32238008 25.57363057 44.48820496 25.57063293 C39.65971508 25.55917625 34.83149575 25.52970199 30.00311279 25.496521 C25.07649394 25.46583785 20.14983139 25.45213136 15.22314453 25.43701172 C5.55570793 25.40483308 -4.11152784 25.35362677 -13.77880859 25.29052734 C-13.88742692 22.58110342 -13.96639436 19.87608834 -14.02880859 17.16552734 C-14.06232422 16.40498047 -14.09583984 15.64443359 -14.13037109 14.86083984 C-14.22268121 9.50685289 -13.35582691 6.52376125 -9.77880859 2.29052734 C-6.12628428 -0.14448886 -4.35435565 0.02678025 0 0 Z " fill="#FDFDFD" transform="translate(326.77880859375,299.70947265625)"/>
<path d="M0 0 C1.33653625 -0.01902626 1.33653625 -0.01902626 2.70007324 -0.03843689 C4.13921082 -0.03403343 4.13921082 -0.03403343 5.60742188 -0.02954102 C7.08861511 -0.03740379 7.08861511 -0.03740379 8.59973145 -0.04542542 C10.68773457 -0.05184963 12.77577387 -0.05050348 14.86376953 -0.04199219 C18.06412949 -0.0334793 21.26270697 -0.06224336 24.46289062 -0.09399414 C26.49023384 -0.0956061 28.51758022 -0.09502872 30.54492188 -0.09204102 C31.50434692 -0.10327499 32.46377197 -0.11450897 33.45227051 -0.12608337 C34.78880676 -0.11201195 34.78880676 -0.11201195 36.15234375 -0.09765625 C36.93605347 -0.09749008 37.71976318 -0.09732391 38.52722168 -0.09715271 C40.57617188 0.40405273 40.57617188 0.40405273 42.34094238 2.20103455 C44.07961645 5.30194058 43.77738123 7.91642395 43.57617188 11.40405273 C41.22536377 12.57945678 39.79501762 12.54291862 37.17407227 12.56518555 C36.26295181 12.57479309 35.35183136 12.58440063 34.4131012 12.59429932 C33.42664108 12.59854919 32.44018097 12.60279907 31.42382812 12.60717773 C29.9072184 12.61572784 29.9072184 12.61572784 28.35997009 12.62445068 C26.21891326 12.63390689 24.07784183 12.64043712 21.93676758 12.64428711 C18.65550493 12.65400289 15.37486581 12.68502486 12.09375 12.71655273 C10.01627977 12.7230816 7.93880505 12.72833253 5.86132812 12.73217773 C4.87689224 12.74452454 3.89245636 12.75687134 2.87818909 12.76959229 C1.96391647 12.76659119 1.04964386 12.76359009 0.10766602 12.76049805 C-1.09907021 12.76596649 -1.09907021 12.76596649 -2.33018494 12.77154541 C-4.96246487 12.30950699 -5.84149135 11.52863076 -7.42382812 9.40405273 C-8.06670465 4.2610405 -8.06670465 4.2610405 -6.17687988 1.74180603 C-3.96859549 0.05666484 -2.75939042 0.01902355 0 0 Z " fill="#FBFBFB" transform="translate(783.423828125,355.595947265625)"/>
<path d="M0 0 C0.495 1.485 0.495 1.485 1 3 C-48 52 -48 52 -50.69941711 54.66426086 C-53.02650771 56.93205796 -53.02650771 56.93205796 -54.875 59.4375 C-57.13157284 62.15866136 -59.56217204 64.26868968 -62.265625 66.52734375 C-65.46174071 69.24116272 -68.31905181 72.11476735 -70.875 75.4375 C-73.13157284 78.15866136 -75.56217204 80.26868968 -78.265625 82.52734375 C-81.50871728 85.28105048 -84.38361716 88.21025948 -87 91.5625 C-89.11010658 94.13419239 -91.36251179 95.98718005 -94 98 C-94.99 98.99 -94.99 98.99 -96 100 C-96 98.68 -96 97.36 -96 96 C-95.0409375 95.5978125 -95.0409375 95.5978125 -94.0625 95.1875 C-91.66868314 94.11332248 -91.66868314 94.11332248 -91 91 C-90.34 91 -89.68 91 -89 91 C-88.731875 90.360625 -88.46375 89.72125 -88.1875 89.0625 C-87 87 -87 87 -84 86 C-83.67 85.01 -83.34 84.02 -83 83 C-82.34 83 -81.68 83 -81 83 C-80.731875 82.360625 -80.46375 81.72125 -80.1875 81.0625 C-79 79 -79 79 -76 78 C-75.505 76.515 -75.505 76.515 -75 75 C-74.34 75 -73.68 75 -73 75 C-72.731875 74.360625 -72.46375 73.72125 -72.1875 73.0625 C-71 71 -71 71 -68 70 C-67.505 68.515 -67.505 68.515 -67 67 C-66.34 67 -65.68 67 -65 67 C-64.731875 66.360625 -64.46375 65.72125 -64.1875 65.0625 C-63 63 -63 63 -60 62 C-59.67 61.01 -59.34 60.02 -59 59 C-58.34 59 -57.68 59 -57 59 C-56.731875 58.360625 -56.46375 57.72125 -56.1875 57.0625 C-55 55 -55 55 -52 54 C-51.67 53.01 -51.34 52.02 -51 51 C-50.34 51 -49.68 51 -49 51 C-48.773125 50.4225 -48.54625 49.845 -48.3125 49.25 C-46.66216522 46.42085466 -44.56741423 45.01725404 -42 43 C-40.64613064 41.34997172 -39.31321858 39.6825613 -38 38 C-35.28509102 35.13833918 -32.46039445 32.52553788 -29.4375 30 C-26.55772117 27.56804854 -24.30342609 24.99445392 -22 22 C-19.28509102 19.13833918 -16.46039445 16.52553788 -13.4375 14 C-10.55772117 11.56804854 -8.30342609 8.99445392 -6 6 C-4.35259924 4.3142876 -2.68933922 2.6436814 -1 1 C-0.67 0.67 -0.34 0.34 0 0 Z " fill="#353535" transform="translate(257,754)"/>
<path d="M0 0 C0.99 0.33 1.98 0.66 3 1 C-12.84 16.84 -28.68 32.68 -45 49 C-45.495 47.515 -45.495 47.515 -46 46 C-45.52691406 45.59910156 -45.05382812 45.19820312 -44.56640625 44.78515625 C-39.11610631 40.09981069 -34.04131785 35.11887659 -29 30 C-28.113125 29.13375 -27.22625 28.2675 -26.3125 27.375 C-23.82353606 24.81876677 -21.57339312 22.12908014 -19.33203125 19.35546875 C-18.89246094 18.90816406 -18.45289063 18.46085938 -18 18 C-17.34 18 -16.68 18 -16 18 C-15.34 16.68 -14.68 15.36 -14 14 C-13.34 14 -12.68 14 -12 14 C-11.34 12.68 -10.68 11.36 -10 10 C-9.34 10 -8.68 10 -8 10 C-7.7525 9.4225 -7.505 8.845 -7.25 8.25 C-5.81700012 5.67060021 -4.21575324 3.93878408 -2 2 C-1.34 2 -0.68 2 0 2 C0 1.34 0 0.68 0 0 Z " fill="#D1D1D1" transform="translate(400,706)"/>
<path d="M0 0 C-1.63966403 4.17208992 -4.69271529 6.98121629 -7.8125 10.078125 C-8.38202393 10.64956238 -8.95154785 11.22099976 -9.53833008 11.80975342 C-10.7395668 13.01234789 -11.94331997 14.21243334 -13.14941406 15.41015625 C-15.00040955 17.25040717 -16.84045446 19.10112633 -18.6796875 20.953125 C-19.84831724 22.12043384 -21.01756684 23.28712251 -22.1875 24.453125 C-22.73962158 25.00929504 -23.29174316 25.56546509 -23.8605957 26.13848877 C-27.77006365 30 -27.77006365 30 -30 30 C-30.31324219 30.79857422 -30.31324219 30.79857422 -30.6328125 31.61328125 C-32.55967591 34.97703424 -35.13813428 37.46704235 -37.875 40.1875 C-38.40480469 40.73341797 -38.93460937 41.27933594 -39.48046875 41.84179688 C-42.24437614 44.60913343 -44.15575291 46.28314457 -48 47 C-47.04882866 45.8274869 -46.08882991 44.66212985 -45.125 43.5 C-44.32449219 42.52546875 -44.32449219 42.52546875 -43.5078125 41.53125 C-43.01023437 41.0259375 -42.51265625 40.520625 -42 40 C-41.34 40 -40.68 40 -40 40 C-39.67 39.01 -39.34 38.02 -39 37 C-36.5625 34.3125 -36.5625 34.3125 -34 32 C-33.34 32 -32.68 32 -32 32 C-31.67 31.01 -31.34 30.02 -31 29 C-28.5625 26.3125 -28.5625 26.3125 -26 24 C-25.34 24 -24.68 24 -24 24 C-23.67 23.01 -23.34 22.02 -23 21 C-20.5625 18.3125 -20.5625 18.3125 -18 16 C-17.34 16 -16.68 16 -16 16 C-15.67 15.01 -15.34 14.02 -15 13 C-12.5625 10.3125 -12.5625 10.3125 -10 8 C-9.34 8 -8.68 8 -8 8 C-7.67 7.01 -7.34 6.02 -7 5 C-2.46511628 0 -2.46511628 0 0 0 Z " fill="#323232" transform="translate(306,707)"/>
<path d="M0 0 C16.10313901 -1.22690583 16.10313901 -1.22690583 20.75390625 1.78125 C22.44146892 3.78236816 23.80591849 5.67413688 25 8 C21.43630691 9.1878977 20.88104472 8.77832681 17.5625 7.3125 C11.8105474 4.87407992 5.942074 2.91943284 0 1 C0 0.67 0 0.34 0 0 Z " fill="#D1D1D1" transform="translate(630,273)"/>
<path d="M0 0 C-1.51376081 3.56764285 -3.60513129 5.83706287 -6.3515625 8.546875 C-7.20234375 9.39121094 -8.053125 10.23554687 -8.9296875 11.10546875 C-9.81914062 11.97816406 -10.70859375 12.85085938 -11.625 13.75 C-12.5221875 14.63816406 -13.419375 15.52632812 -14.34375 16.44140625 C-16.55807004 18.63216969 -18.77692435 20.81812763 -21 23 C-21.66 22.67 -22.32 22.34 -23 22 C-21.625 20 -21.625 20 -20 18 C-19.34 18 -18.68 18 -18 18 C-17.773125 17.4225 -17.54625 16.845 -17.3125 16.25 C-15.66216522 13.42085466 -13.56741423 12.01725404 -11 10 C-9.64613064 8.34997172 -8.31321858 6.6825613 -7 5 C-2.33333333 0 -2.33333333 0 0 0 Z " fill="#333333" transform="translate(146,867)"/>
<path d="M0 0 C0.66 0.66 1.32 1.32 2 2 C-4.33333333 8.33333333 -10.66666667 14.66666667 -17 21 C-17.66 20.34 -18.32 19.68 -19 19 C-17.71034824 17.62437146 -16.37310707 16.29233607 -15 15 C-14.34 15 -13.68 15 -13 15 C-13 14.34 -13 13.68 -13 13 C-8.69767442 8.23255814 -8.69767442 8.23255814 -5 7 C-4.29848848 5.6846659 -3.63474075 4.34882408 -3 3 C-1.375 1.25 -1.375 1.25 0 0 Z " fill="#2A2A2A" transform="translate(717,651)"/>
<path d="M0 0 C0 3 0 3 -1.4609375 4.75390625 C-2.09257812 5.35074219 -2.72421875 5.94757813 -3.375 6.5625 C-4.00148438 7.16191406 -4.62796875 7.76132812 -5.2734375 8.37890625 C-5.84320313 8.91386719 -6.41296875 9.44882812 -7 10 C-7.66 10.66 -8.32 11.32 -9 12 C-9.99 11.67 -10.98 11.34 -12 11 C-10.88121617 9.82737096 -9.75476949 8.66204862 -8.625 7.5 C-7.68527344 6.52546875 -7.68527344 6.52546875 -6.7265625 5.53125 C-5 4 -5 4 -3 4 C-3 3.34 -3 2.68 -3 2 C-2.01 1.34 -1.02 0.68 0 0 Z " fill="#2A2A2A" transform="translate(441,372)"/>
<path d="M0 0 C0.99 0.33 1.98 0.66 3 1 C-0.96 3.97 -4.92 6.94 -9 10 C-9.66 9.34 -10.32 8.68 -11 8 C-9.23871656 6.63343543 -7.46563912 5.28205915 -5.6875 3.9375 C-4.70136719 3.18339844 -3.71523438 2.42929687 -2.69921875 1.65234375 C-1.80847656 1.10707031 -0.91773438 0.56179688 0 0 Z " fill="#151515" transform="translate(473,380)"/>
<path d="M0 0 C0.66 0.33 1.32 0.66 2 1 C-1.96 4.96 -5.92 8.92 -10 13 C-10 8.41771462 -7.08388033 6.1816619 -4 3 C-1.625 1.0625 -1.625 1.0625 0 0 Z " fill="#373737" transform="translate(270,329)"/>
<path d="M0 0 C2.97 0 5.94 0 9 0 C7 3 7 3 4.8359375 3.51171875 C3.61777344 3.59873047 3.61777344 3.59873047 2.375 3.6875 C1.55773437 3.75324219 0.74046875 3.81898438 -0.1015625 3.88671875 C-0.72804688 3.92410156 -1.35453125 3.96148437 -2 4 C-1.34 2.68 -0.68 1.36 0 0 Z " fill="#AEAEAE" transform="translate(477,273)"/>
<path d="M0 0 C0 3 0 3 -1.75 5.04296875 C-2.4925 5.75066406 -3.235 6.45835937 -4 7.1875 C-4.7425 7.90292969 -5.485 8.61835937 -6.25 9.35546875 C-6.8275 9.89816406 -7.405 10.44085937 -8 11 C-8.99 10.67 -9.98 10.34 -11 10 C-5.555 5.05 -5.555 5.05 0 0 Z " fill="#2B2B2B" transform="translate(665,612)"/>
<path d="M0 0 C1 4 1 4 0 6 C-1.64295195 7.36244796 -3.30824337 8.69864875 -5 10 C-5.66 9.67 -6.32 9.34 -7 9 C-4.69 6.03 -2.38 3.06 0 0 Z " fill="#3F3F3F" transform="translate(367,352)"/>
<path d="M0 0 C0.33 0.66 0.66 1.32 1 2 C-1.33679861 5.83902629 -2.86281109 8.20953589 -7 10 C-6.02223933 8.51990357 -5.0427506 7.04094856 -4.0625 5.5625 C-3.51722656 4.73878906 -2.97195313 3.91507813 -2.41015625 3.06640625 C-1 1 -1 1 0 0 Z " fill="#393939" transform="translate(727,638)"/>
<path d="M0 0 C0.66 1.32 1.32 2.64 2 4 C0.71034824 5.37562854 -0.62689293 6.70766393 -2 8 C-2.66 8 -3.32 8 -4 8 C-2.87548273 5.0280615 -1.77706209 2.66559313 0 0 Z " fill="#3D3D3D" transform="translate(122,890)"/>
<path d="M0 0 C0.66 0.33 1.32 0.66 2 1 C0.35 2.98 -1.3 4.96 -3 7 C-3.66 6.67 -4.32 6.34 -5 6 C-3.63016497 2.83884224 -3.0109362 2.0072908 0 0 Z " fill="#434343" transform="translate(165,847)"/>
<path d="M0 0 C1.98 0.66 3.96 1.32 6 2 C4.68 2.99 3.36 3.98 2 5 C1.34 4.67 0.68 4.34 0 4 C0 2.68 0 1.36 0 0 Z " fill="#313131" transform="translate(458,698)"/>
<path d="M0 0 C0.66 0 1.32 0 2 0 C3.06775224 1.96466413 4.06553465 3.96855359 5 6 C4.67 6.66 4.34 7.32 4 8 C3.54625 7.34 3.0925 6.68 2.625 6 C2.08875 5.34 1.5525 4.68 1 4 C0.34 4 -0.32 4 -1 4 C-0.67 2.68 -0.34 1.36 0 0 Z " fill="#474747" transform="translate(505,480)"/>
<path d="M0 0 C0.66 0.33 1.32 0.66 2 1 C0.02 2.98 -1.96 4.96 -4 7 C-4.99 6.67 -5.98 6.34 -7 6 C-4.69 4.02 -2.38 2.04 0 0 Z " fill="#333333" transform="translate(484,413)"/>
<path d="M0 0 C1.98 0.66 3.96 1.32 6 2 C4.68 2.99 3.36 3.98 2 5 C1.34 4.67 0.68 4.34 0 4 C0 2.68 0 1.36 0 0 Z " fill="#313131" transform="translate(634,346)"/>
</svg>
